<svg viewBox="0 0 20 20">
  <path fill="currentColor" d="M6 18H3a1 1 0 010-2h3a1 1 0 010 2zm1-4H2a2 2 0 00-2 2v2a2 2 0 002 2h5a2 2 0 002-2v-2a2 2 0 00-2-2zM17 4h-3a1 1 0 010-2h3a1 1 0 010 2zm1-4h-5a2 2 0 00-2 2v2a2 2 0 002 2h5a2 2 0 002-2V2a2 2 0 00-2-2zm0 17a1 1 0 01-1 1h-3a1 1 0 01-1-1v-6a1 1 0 011-1h3a1 1 0 011 1v6zm0-9h-5a2 2 0 00-2 2v8a2 2 0 002 2h5a2 2 0 002-2v-8a2 2 0 00-2-2zM7 9a1 1 0 01-1 1H3a1 1 0 01-1-1V3a1 1 0 011-1h3a1 1 0 011 1v6zM2 0a2 2 0 00-2 2v8a2 2 0 002 2h5a2 2 0 002-2V2a2 2 0 00-2-2H2z"/>
</svg>
