<svg viewBox="0 0 20 20">
  <path fill="currentColor" d="M16.46 6.22c-.03 0-.03-.03-.03-.02C13.63-.3 4.01 1.06 3.11 8.08c0 0-1.43.33-2.34 1.63-2.88 4.12 3.27 7.84 3.27 5.23 0-.5-.08-.88-.64-1.08-3-1.06-.5-5.32 1.87-3.43a5 5 0 014.76-6.45c2.44 0 4.44 1.8 4.88 4.02 2.84-.1 4.51 3.77 1.58 5.54-1.1.67-.12 2.34.95 1.74a4.94 4.94 0 00-.98-9.06m-2.44 8.88v-.04.04m0-.02c-.02.54-.46.92-1 .92h-2v2a1 1 0 11-2 0v-2H7.04c-.55 0-1-.35-1-.9v-.04c0-.55.45-1.07 1-1.07h2v-2a1 1 0 112 0v2h1.99c.54 0 .98.54 1 1.09" />
</svg>
