<svg viewBox="0 0 142 142">
  <path fill="gray" d="M11.8 136.1h-.2l46.7-36.2 5.4 4.1c2.1 1.6 4.7 2.5 7.2 2.5s5.1-.8 7.2-2.5l5.4-4.1 46.7 36.2H11.8zm6-75.2l-10-7.7 10-7.7v15.4zM6.4 132.6c-.3-.8-.5-1.6-.5-2.4V59.3l47.6 36.9-47.1 36.4zM29.6 17.7h82.8a6 6 0 015.9 5.9v41.9L74.6 99.3a6 6 0 01-7.2 0L23.7 65.5V23.7a6 6 0 015.9-6zM67.4 7.2a5.9 5.9 0 017.3 0l6 4.7H61.3l6.1-4.7zm66.8 46l-10 7.7V45.5l10 7.7zm1.4 79.4L88.4 96.1 136 59.2v70.9a5 5 0 01-.4 2.5zm5.3-81.7l-16.6-12.8V23.7c0-6.5-5.3-11.8-11.8-11.8H90.4L78.2 2.5a11.9 11.9 0 00-14.5 0l-12.1 9.4h-22c-6.5 0-11.8 5.3-11.8 11.8v14.4L1.1 50.9A3 3 0 000 53.2v76.9a11.7 11.7 0 0011.8 11.8h118.3c2.9 0 5.7-1.1 7.9-3 2.5-2.2 4-5.4 4-8.8V53.2a3 3 0 00-1.1-2.3z"/>
  <path fill="#73b61c" d="M89.2 37.6L66.9 56.7l-9-9.2-5.2 4.3 14.2 18.3 26.4-28.4z"/>
</svg>
