<?xml version="1.0" encoding="UTF-8"?>
<svg width="604px" height="201px" viewBox="0 0 604 201" version="1.1" xmlns="http://www.w3.org/2000/svg" xmlns:xlink="http://www.w3.org/1999/xlink">
    <!-- Generator: Sketch 61.2 (89653) - https://sketch.com -->
    <title>Plug / Error</title>
    <desc>Created with Sketch.</desc>
    <g id="API-Key" stroke="none" stroke-width="1" fill="none" fill-rule="evenodd">
        <g id="Plug-/-Error">
            <path d="M330.321802,163.687501 C329.566753,162.114446 327.702598,161.55277 325.985347,162.380467 C324.268547,163.208391 323.542607,165.018512 324.296979,166.591341 L335.673263,190.311805 C336.145113,191.295813 337.043003,191.907481 338.136763,191.990499 C338.220708,191.996833 338.304878,192 338.389274,192 C339.583226,192 340.795457,191.372045 341.467464,190.385097 C342.085765,189.477095 342.169709,188.392198 341.698086,187.408869 L330.321802,163.687501 Z" id="Fill-1" fill="#4A4A4A"></path>
            <path d="M352.273599,149.816685 C351.532567,149.081557 350.533393,148.826964 349.532507,149.117209 C348.368089,149.455355 347.387324,150.488383 347.091724,151.68764 C346.83765,152.718481 347.117196,153.731169 347.858442,154.466296 L365.730975,172.188757 L365.731189,172.188975 C366.279365,172.732283 366.967741,173 367.674312,173 C368.49604,173 369.341741,172.637795 370.018345,171.924977 C371.276516,170.599735 371.33174,168.714343 370.14656,167.539364 L352.273599,149.816685 Z" id="Fill-3" fill="#4A4A4A"></path>
            <path d="M277.785323,166.135923 C276.170191,165.652524 274.644745,166.494171 274.236993,168.094033 L268.099094,192.212802 C267.844324,193.21293 268.086197,194.213273 268.762608,194.957725 C269.367588,195.623474 270.250752,196 271.120224,196 C271.382336,196 271.643257,195.965809 271.894853,195.894848 C272.828415,195.63186 273.509787,194.907407 273.764557,193.907063 L279.90325,169.787864 C280.310406,168.189078 279.39986,166.619107 277.785323,166.135923" id="Fill-5" fill="#4A4A4A"></path>
            <path d="M306.027147,171.683727 C305.83085,169.964816 304.17648,168.821341 302.178529,169.023012 C300.181531,169.225131 298.822916,170.673579 299.018737,172.392266 L301.972953,198.315308 C302.095252,199.390216 302.771704,200.259867 303.829093,200.700854 C304.311389,200.901853 304.843653,201 305.378295,201 C306.207741,201 307.042421,200.763821 307.703407,200.309612 C308.637783,199.667401 309.103424,198.68235 308.980649,197.606994 L306.027147,171.683727 Z" id="Fill-7" fill="#4A4A4A"></path>
            <path d="M267.653031,42.1488013 C268.116123,43.3210579 269.216188,44 270.465645,44 C270.906695,44 271.366224,43.9154633 271.822859,43.7380025 C273.573256,43.0583983 274.420847,41.3500069 273.794561,39.764558 L264.35061,15.8510522 C263.959208,14.8591258 263.120968,14.1980622 262.051182,14.0371556 C260.805956,13.8504244 259.441839,14.379496 258.655919,15.3548683 C257.980429,16.1931719 257.817679,17.2427069 258.209526,18.2341919 L267.653031,42.1488013 Z" id="Fill-10" fill="#4A4A4A"></path>
            <path d="M247.729852,57.1879313 C248.278143,57.7317898 248.967092,58 249.674025,58 C250.495283,58 251.340733,57.6379381 252.017265,56.9258467 C253.276556,55.6003284 253.332006,53.7138877 252.146577,52.538007 L234.270082,34.8114146 L234.269654,34.8111959 C233.084011,33.6359715 231.240676,33.7495124 229.982241,35.0750307 C228.723378,36.400549 228.668143,38.2865522 229.853572,39.4626516 L247.729852,57.1879313 Z" id="Fill-12" fill="#4A4A4A"></path>
            <path d="M321.156794,39.8552281 C321.467863,39.9532507 321.775612,40 322.073011,40 C323.291705,40 324.331334,39.212372 324.663883,37.927306 L330.89619,13.82257 C331.154926,12.82317 330.9247,11.8185996 330.264875,11.0665182 C329.49687,10.1909929 328.260797,9.80191844 327.189924,10.0981407 C326.269215,10.3527841 325.592793,11.0721195 325.334447,12.0717349 L319.101359,36.1766863 C318.687968,37.774563 319.57177,39.3560667 321.156794,39.8552281" id="Fill-14" fill="#4A4A4A"></path>
            <path d="M294.466888,36.9984378 C296.530392,36.9482236 298.048682,35.6125262 297.998806,33.8909607 L297.240395,7.93379665 C297.209344,6.85742765 296.592738,5.94352944 295.548272,5.42621172 C294.332906,4.82408783 292.724399,4.8631433 291.545708,5.52306931 C290.532781,6.09037804 289.969718,7.03306572 290.001257,8.10988107 L290.758691,34.0674915 C290.808078,35.7555809 292.34226,37 294.348065,37 C294.387428,37 294.42728,36.9993305 294.466888,36.9984378" id="Fill-16" fill="#4A4A4A"></path>
            <path d="M239.247802,141.452511 C226.364456,144.490635 213.413892,136.470686 210.378717,123.574818 L209.903316,121.55428 C206.868142,108.658412 214.880101,95.69526 227.763447,92.6571357 L249.415616,87.5513142 L260.899769,136.346689 L239.247802,141.452511 Z M257.520177,74.4383499 L225.265815,82.0444343 C208.215552,86.064979 197.036419,102.043082 198.496942,119.019461 C195.319208,119.72177 192.397757,120.398264 189.702125,121.022517 C175.788575,124.244807 167.390365,126.189727 155.397507,124.60643 C147.45561,123.557946 139.702574,120.987351 132.976696,117.172925 C125.805269,113.105831 119.978611,107.807306 115.658778,101.424521 C113.340462,97.9993641 111.432563,94.2532385 109.412566,90.2873743 C107.491669,86.5156362 105.505383,82.6156326 103.095277,78.920122 C93.4530237,64.1364536 77.2650212,53.4743568 58.6815339,49.6676557 C50.393392,47.9699162 41.5624278,47.5660119 32.4337542,48.4671229 C29.4056876,48.7659348 26.3382242,49.2102905 23.2435486,49.7940917 L23.2476101,49.7881968 C19.1505513,50.5360397 15.0023172,51.5583016 10.8323541,52.846242 C10.6081581,52.9153549 10.3924914,52.9824351 10.1823077,53.0482957 C10.1542832,53.0570365 10.1262587,53.0659805 10.0982342,53.0747213 C9.84154614,53.1552175 9.59521492,53.2330713 9.35883442,53.3084857 C8.54795184,53.5648135 7.73666311,53.8274427 6.92456207,54.1020651 L6.92740514,54.1106026 C5.52090057,54.5923605 4.88242954,54.848485 4.88242954,54.848485 C1.25427323,56.3053455 -0.808166911,59.5965453 0.299409745,62.1622622 C1.4069864,64.7279792 5.28350469,65.640067 8.91409792,64.1893047 C8.91409792,64.1893047 9.31598538,64.0287187 10.1737785,63.7295002 L10.1743877,63.7311264 C26.8241851,58.1006563 42.4592116,56.7190069 56.6458998,59.6250036 C72.5916326,62.891404 86.4225316,71.949267 94.5928894,84.4761941 C96.7060986,87.7163722 98.4842323,91.207593 100.366544,94.9035101 C102.438326,98.9714175 104.580575,103.177754 107.252446,107.12512 C112.456878,114.814953 119.427869,121.170703 127.971481,126.015928 C135.821791,130.468022 144.846489,133.465085 154.069796,134.682896 C157.489394,135.134367 160.64946,135.338047 163.689914,135.338047 C172.934341,135.337843 181.068348,133.454312 191.990995,130.924574 C194.631796,130.313128 197.492122,129.65066 200.59025,128.965425 C206.166718,146.000956 223.998824,156.250205 241.745638,152.065212 L274,144.459331 L257.520177,74.4383499 Z" id="Fill-18" fill="#808080"></path>
            <path d="M375.609958,108.80275 L353.93187,113.902536 L342.43397,65.1648397 L364.112058,60.0650536 C377.010827,57.0305205 389.976894,65.0409895 393.015498,77.9216142 L393.491671,79.9397635 C396.530479,92.8203881 388.508726,105.768217 375.609958,108.80275 M602.933138,33.0841843 C600.953013,31.1468422 596.765046,31.3827667 593.585542,33.5954217 L593.585338,33.5950157 C579.821041,41.0026793 562.209538,30.7606732 552.936763,23.9964215 C550.948302,22.5459529 548.904335,20.9996526 546.927463,19.5041105 C534.890361,10.3976687 522.443571,0.981398312 506.842895,0.0925192788 C498.667636,-0.373238716 490.235586,0.925767235 482.459239,3.84842911 C474.095911,6.99199102 466.706887,11.8383918 460.497521,18.2530204 C454.228176,24.7291681 450.036956,31.3464238 445.983789,37.7458249 C443.071039,42.3447283 440.05907,47.0999672 436.257815,51.8164268 C425.536391,65.1181421 422.076103,65.8715981 405.448259,69.4918818 C404.360705,69.7286184 403.200566,69.9811916 401.977398,70.2508196 C395.604564,54.6174718 378.568454,45.4757022 361.611233,49.4648971 L329.318057,57.0619906 L332.126504,68.9660259 L301.33301,76.210451 C298.323073,76.9184275 296.440338,79.9570213 297.149516,82.9629267 L297.240196,83.3476745 C297.949373,86.3533769 300.992247,88.2332607 304.002387,87.5252842 L334.795881,80.2808591 L340.339987,103.780928 L309.546289,111.02515 C306.536353,111.73333 304.653821,114.771924 305.362998,117.777626 L305.453678,118.162577 C306.162856,121.168279 309.205729,123.048163 312.215666,122.339984 L343.009363,115.095762 L345.817607,127 L378.110783,119.402906 C395.98721,115.197481 407.420048,97.894186 404.621157,80.0644258 C405.66764,79.8343893 406.6698,79.6159256 407.614014,79.4104561 C416.428711,77.4911839 422.252178,76.2232421 427.690761,73.3294109 C433.079938,70.461771 437.702398,66.214724 444.177095,58.1815153 C448.341477,53.0149313 451.510613,48.0111799 454.575445,43.1722913 C458.528579,36.931053 462.262534,31.0357831 467.80664,25.3086246 C472.962,19.9830657 479.096544,15.9593552 486.040502,13.3493643 C492.499748,10.9214942 499.493519,9.84196704 506.263842,10.22773 C518.772848,10.9403763 529.964955,19.4074668 540.788649,27.5957928 C542.800085,29.1175261 544.88004,30.6912359 546.940069,32.1938841 C555.22756,38.2391954 563.368254,42.4127444 571.136264,44.598396 C578.766018,46.7450653 585.817735,46.8985583 592.185893,45.0682147 L592.187926,45.0718693 C597.834098,43.4498376 600.95708,41.0122219 600.95708,41.0122219 C604.040821,38.6054672 604.930139,35.0377691 602.933138,33.0841843" id="Fill-21" fill="#808080"></path>
        </g>
    </g>
</svg>