<svg viewBox="0 0 20 20">
  <path fill="currentColor" d="M20 11.875v-3.75l-2.875-.5c-.125-.375-.25-.75-.375-1L18.5 4.25l-2.625-2.625L13.5 3.25c-.375-.125-.625-.25-1-.375L11.875 0h-3.75l-.5 2.875c-.375.125-.625.25-1 .375L4.25 1.625 1.625 4.25l1.75 2.375c-.25.375-.375.625-.5 1L0 8.125v3.75l2.875.5c.125.375.25.75.375 1L1.5 15.75l2.625 2.625 2.375-1.75c.375.125.625.25 1 .375l.625 3h3.75l.5-2.875c.375-.125.625-.25 1-.375l2.375 1.75 2.625-2.625-1.75-2.375c.125-.375.25-.625.375-1l3-.625zM10 13c-1.676 0-3-1.324-3-3s1.324-3 3-3 3 1.324 3 3-1.324 3-3 3z"/>
</svg>
