<svg viewBox="0 0 168 27">
  <path d="M19.76 6.886h.1l-.06-.05 3.741-3.732.008-.067A12.19 12.19 0 0012.003.511a12.167 12.167 0 00-8.247 8.447c.066-.026.133-.049.201-.065a8.817 8.817 0 014.787-1.45 8.84 8.84 0 011.716.164c.029-.018.056-.025.079-.02a6.761 6.761 0 019.24-.7h-.019" fill="#EA4335"/>
  <path d="M27.275 8.958a12.19 12.19 0 00-3.676-5.91l-3.8 3.789a6.731 6.731 0 012.48 5.344v.671c4.507 0 4.507 6.746 0 6.746h-6.763l-.01.01v5.354h-.03l.04.04h6.762a8.797 8.797 0 008.47-6.173 8.772 8.772 0 00-3.473-9.871" fill="#4285F4"/>
  <path d="M8.744 24.962h6.761v-5.398h-6.76c-.479 0-.956-.103-1.39-.303l-3.91 3.899-.01.04a8.77 8.77 0 005.31 1.762" fill="#34A853"/>
  <path d="M8.744 7.444a8.8 8.8 0 00-8.282 5.972 8.756 8.756 0 002.973 9.754l3.924-3.912c-2.158-.973-2.673-3.79-1-5.459 1.672-1.667 4.496-1.154 5.472.996l3.923-3.91a8.795 8.795 0 00-7.01-3.441" fill="#FBBC05"/>
  <path d="M49.15 21.192a8.68 8.68 0 01-6.272-2.565 8.347 8.347 0 01-2.628-6.18 8.33 8.33 0 012.628-6.178 8.659 8.659 0 016.272-2.615 8.396 8.396 0 016.01 2.418L53.47 7.785a6.09 6.09 0 00-4.319-1.703 6.014 6.014 0 00-4.468 1.894 6.183 6.183 0 00-1.83 4.501 6.165 6.165 0 001.83 4.441 6.382 6.382 0 008.89.104 5.027 5.027 0 001.301-2.946h-5.699v-2.428h8.069c.08.488.108.986.095 1.48a7.591 7.591 0 01-2.083 5.592 8.082 8.082 0 01-6.105 2.472zm18.748-1.61a5.826 5.826 0 01-8.043 0 5.399 5.399 0 01-1.647-4.026 5.402 5.402 0 011.647-4.027 5.828 5.828 0 018.043 0 5.394 5.394 0 011.643 4.027c.04 1.51-.56 2.97-1.652 4.027h.009zm-6.267-1.584a3.084 3.084 0 004.492 0 3.374 3.374 0 00.949-2.442 3.399 3.399 0 00-.95-2.456 3.13 3.13 0 00-4.51 0 3.362 3.362 0 00-.95 2.456 3.36 3.36 0 00.96 2.442h.009zm18.635 1.585a5.834 5.834 0 01-8.049 0 5.404 5.404 0 01-1.641-4.027 5.39 5.39 0 011.641-4.027 5.825 5.825 0 018.05 0 5.4 5.4 0 011.641 4.027 5.415 5.415 0 01-1.642 4.027zm-6.272-1.585a3.09 3.09 0 004.496 0 3.379 3.379 0 00.95-2.442 3.403 3.403 0 00-.95-2.456 3.133 3.133 0 00-4.512 0 3.373 3.373 0 00-.95 2.456 3.38 3.38 0 00.955 2.442h.01zm14.4 8.253a4.965 4.965 0 01-3.161-1.002 5.838 5.838 0 01-1.845-2.335l2.167-.898a3.614 3.614 0 001.074 1.411 2.692 2.692 0 001.775.598 2.85 2.85 0 002.211-.855 3.446 3.446 0 00.792-2.462v-.814h-.089a3.62 3.62 0 01-2.969 1.278 5.148 5.148 0 01-3.799-1.649 5.438 5.438 0 01-1.626-3.967 5.488 5.488 0 011.626-4.002 5.171 5.171 0 013.8-1.658 4.12 4.12 0 011.746.39c.47.207.895.513 1.231.898h.09v-.898h2.354v10.09a5.885 5.885 0 01-1.508 4.408 5.334 5.334 0 01-3.87 1.467zm.174-7.275a2.78 2.78 0 002.146-.947c.584-.671.895-1.54.862-2.428a3.59 3.59 0 00-.862-2.473 2.753 2.753 0 00-2.146-.947 2.95 2.95 0 00-2.226.947 3.45 3.45 0 00-.95 2.452c-.021.903.326 1.778.95 2.428.568.627 1.38.979 2.226.968zm6.91 1.875h2.484V4.29h-2.483v16.56zm9.28.34a5.4 5.4 0 01-3.996-1.618 5.506 5.506 0 01-1.609-4.017 5.556 5.556 0 011.55-4.056 5.114 5.114 0 013.798-1.584 4.827 4.827 0 011.9.37 4.394 4.394 0 011.454.947c.361.346.677.731.949 1.145.224.355.41.726.561 1.11l.257.647-7.599 3.115a2.848 2.848 0 002.735 1.706 3.254 3.254 0 002.785-1.564l1.9 1.278a6.357 6.357 0 01-1.824 1.727 5.176 5.176 0 01-2.861.795zm-3.17-5.807l5.05-2.092a1.719 1.719 0 00-.786-.864 2.566 2.566 0 00-1.301-.33c-.773.019-1.51.34-2.043.898a3.001 3.001 0 00-.92 2.388zM122.607 21.192a7.824 7.824 0 01-5.684-2.305 7.78 7.78 0 01-2.275-5.684 7.82 7.82 0 017.96-7.985 7.097 7.097 0 015.634 2.502l-1.37 1.323a5.177 5.177 0 00-4.256-1.94 5.818 5.818 0 00-4.228 1.687 5.901 5.901 0 00-1.717 4.413 5.91 5.91 0 001.716 4.416 5.818 5.818 0 004.23 1.688 6.047 6.047 0 004.748-2.216l1.367 1.362a7.397 7.397 0 01-2.629 1.998 8.076 8.076 0 01-3.496.74M130.442 20.85h1.964V5.549h-1.964zM135.618 11.643a5.507 5.507 0 017.751 0 5.523 5.523 0 011.519 3.977 5.52 5.52 0 01-1.519 3.978 5.505 5.505 0 01-7.751 0 5.54 5.54 0 01-1.519-3.978 5.543 5.543 0 011.519-3.977zm1.463 6.726a3.321 3.321 0 004.814 0 3.777 3.777 0 001.02-2.749 3.778 3.778 0 00-1.02-2.748 3.321 3.321 0 00-4.814 0 3.784 3.784 0 00-1.012 2.748 3.767 3.767 0 001.023 2.74l-.01.009zM155.786 20.85h-1.9V19.4h-.059a3.642 3.642 0 01-1.386 1.308 3.915 3.915 0 01-1.949.524 3.72 3.72 0 01-2.982-1.194 4.739 4.739 0 01-1.014-3.204V10.39h1.963v6.084c0 1.949.866 2.926 2.593 2.926a2.429 2.429 0 001.999-.947c.51-.647.776-1.446.766-2.265V10.39h1.97v10.46M162.459 21.192a4.608 4.608 0 01-3.512-1.605 5.675 5.675 0 01-1.474-3.967 5.685 5.685 0 011.474-3.972 4.625 4.625 0 013.512-1.599 4.464 4.464 0 012.148.514c.583.29 1.072.73 1.424 1.277h.084l-.084-1.45V5.548H168v15.303h-1.9V19.4h-.088c-.351.547-.841.986-1.425 1.279a4.433 4.433 0 01-2.128.512zm.326-1.792a3.146 3.146 0 002.365-1.021 3.838 3.838 0 00.95-2.759 3.838 3.838 0 00-.95-2.757 3.215 3.215 0 00-4.749 0 3.766 3.766 0 00-.95 2.747 3.77 3.77 0 00.95 2.75 3.126 3.126 0 002.384 1.04z" fill="#FFF"/>
</svg>
