<svg viewBox="0 0 20 20">
  <path fill="currentColor" d="M10 0c5.5 0 10 4.5 10 10s-4.5 10-10 10S0 15.5 0 10 4.5 0 10 0zm.1 13.4c-.5 0-.9.1-1.2.4-.3.3-.5.7-.5 1.1s.2.8.5 1.1c.3.3.7.4 1.2.4s.9-.1 1.2-.4c.3-.3.5-.7.5-1.1s-.2-.8-.5-1.1c-.3-.3-.7-.4-1.2-.4zM10.3 3c-1.4 0-2.4.3-3.2 1-.7.6-1 1.5-1.1 2.6v.3h3c0-.5.1-.8.4-1.1s.5-.4.9-.4c.8 0 1.2.5 1.2 1.4 0 .4-.1.7-.3 1-.2.3-.6.7-1 1-.4.4-.8.8-1 1.3-.2.5-.3 1-.3 1.8v.3h2.6c0-.5.1-.8.2-1.1.1-.2.3-.5.5-.7l.1-.1 1-1c.4-.4.8-.8 1-1.3s.3-.9.3-1.4c0-1.1-.4-2-1.1-2.6s-1.9-1-3.2-1z"/>
</svg>
