<svg xmlns="http://www.w3.org/2000/svg" viewBox="0 0 3209 673">
  <path fill="#fff" d="M238 1l271 94-16 37zm-5 20l286 146-151 290-57-32 165-223z"/>
  <path fill="#a6dd0a" d="M197 21l251 191-206 256-43-35 208-197z"/>
  <path fill="#fff" d="M301 207L23 274l10 39zm-1 24L1 346l121 305 61-28L40 385z"/>
  <path fill="#a6dd0a" d="M334 231L67 399l181 273 46-31-188-215z"/>
  <g fill="#fff">
    <path d="M2176 229h-45l-89 224h46l23-55h85l22 55h47l-89-224zm6 130h-58l29-89 29 89zm-503-26a60 60 0 0014-37 58 58 0 00-29-52 114 114 0 00-58-13h-97v223h42v-92h60l46 92h45l-50-100a85 85 0 0027-21zm-29-39a31 31 0 01-10 24 68 68 0 01-15 8 87 87 0 01-23 2h-53v-65h57c10 0 21 1 31 5a28 28 0 0113 26zm-248 39a59 59 0 0014-37 58 58 0 00-29-52 114 114 0 00-58-13h-98v223h43v-92h60l46 92h45l-50-100a82 82 0 0027-21zm-29-39c1 9-3 18-10 24a68 68 0 01-15 8 87 87 0 01-23 2h-53v-65h57c10 0 21 1 31 5a29 29 0 0113 26zM735 417l126-160v-28H682v38h119L677 421v34h187v-38zm346-184c-90-31-178 56-146 147a116 116 0 0071 70c90 32 178-56 146-146a116 116 0 00-71-71zm36 90a76 76 0 01-93 92 77 77 0 01-54-54 76 76 0 0192-92 77 77 0 0155 54zm804-90c-91-31-179 56-147 146a116 116 0 0071 71c90 32 178-56 147-146a117 117 0 00-71-71zm34 90a76 76 0 01-93 92 77 77 0 01-54-54 76 76 0 0192-93 78 78 0 0155 55zM3009 445h-44l-89-222h46l65 170 65-170h46zm-314-34l126-159v-29h-179v38h119l-124 154v34h187v-38z"/>
    <path d="M3208 224v227h-43V224z"/>
    <path d="M2453 183v310m-3-310h5v310h-5z"/>
  </g>
</svg>
