<svg xmlns="http://www.w3.org/2000/svg" viewBox="0 0 225 225">
  <path fill="#697855" d="M123.8 185.2h-22l3-22.1c0-.3-.1-.6-.3-.7a15.5 15.5 0 01-6.6-12.8c0-8.5 6.7-15.4 15-15.4s15 6.9 15 15.4c0 5.1-2.5 9.9-6.7 12.8-.2.1-.3.4-.3.7l2.9 22.1zm-17.4-4h12.9l-2.3-17.6c-.2-1.8.5-3.5 2-4.5 3.1-2.1 4.9-5.7 4.9-9.5 0-6.3-4.9-11.4-11-11.4s-11 5.1-11 11.4c0 3.8 1.8 7.4 4.9 9.5a5 5 0 012 4.5l-2.4 17.6zM163.9 99.2h-4V69.1a36.2 36.2 0 00-36.4-35.9h-21.2a36.2 36.2 0 00-36.4 35.9v30.1h-4V69.1c0-22 18.1-39.9 40.4-39.9h21.2a40.2 40.2 0 0140.4 39.9v30.1z"/>
  <path fill="#697855" d="M163.9 99.2h-4V69.1a36.2 36.2 0 00-36.4-35.9h-21.2a36.2 36.2 0 00-36.4 35.9v30.1h-4V69.1c0-22 18.1-39.9 40.4-39.9h21.2a40.2 40.2 0 0140.4 39.9v30.1z"/>
  <path fill="#697855" d="M149.9 99.2h-4V70.9A23.8 23.8 0 00122 47.2h-17.2a23.8 23.8 0 00-23.9 23.7v28.3h-4V70.9a27.8 27.8 0 0127.9-27.7H122a27.8 27.8 0 0127.9 27.7v28.3z"/>
  <path fill="#697855" d="M149.9 99.2h-4V70.9A23.8 23.8 0 00122 47.2h-17.2a23.8 23.8 0 00-23.9 23.7v28.3h-4V70.9a27.8 27.8 0 0127.9-27.7H122a27.8 27.8 0 0127.9 27.7v28.3z"/>
  <path fill="#4f5d3a" d="M173.4 103.2c5.3 0 9.5 4.3 9.5 9.5v93c0 5.2-4.3 9.5-9.5 9.5H52.5a9.5 9.5 0 01-9.5-9.5v-93c0-5.2 4.3-9.5 9.5-9.5h120.9m0-4H52.5c-7.5 0-13.5 6.1-13.5 13.5v93c0 7.5 6.1 13.5 13.5 13.5h120.9c7.5 0 13.5-6.1 13.5-13.5v-93c0-7.4-6.1-13.5-13.5-13.5z"/>
</svg>