<svg viewBox="0 0 149 191">
  <path fill="currentColor" d="M134.9 70.7h-9.5V40.6c0-22-18.1-39.9-40.4-39.9H63.8a40.2 40.2 0 00-40.4 39.9v30.1H14C6.5 70.7.5 76.8.5 84.2v93c0 7.5 6.1 13.5 13.5 13.5h120.9c7.5 0 13.5-6.1 13.5-13.5v-93c0-7.4-6.1-13.5-13.5-13.5zm-49.6 86h-22l3-22.1c0-.3-.1-.6-.3-.7a15.5 15.5 0 01-6.6-12.8c0-8.5 6.7-15.4 15-15.4s15 6.9 15 15.4c0 5.1-2.5 9.9-6.7 12.8-.2.1-.3.4-.3.7l2.9 22.1zm-42.9-86V42.4a23.8 23.8 0 0123.9-23.7h17.2a23.8 23.8 0 0123.9 23.7v28.3h-65zm69 0V42.4a27.8 27.8 0 00-27.9-27.7H66.3a27.8 27.8 0 00-27.9 27.7v28.3h-11V40.6A36.2 36.2 0 0163.8 4.7H85a36.2 36.2 0 0136.4 35.9v30.1h-10z"/>
</svg>
