<svg viewBox="0 0 1576.1 384.9" fill="#ffffff">
  <path d="M582.1 214.6c27.6 4.5 37.2 25.8 37.2 50.3V317c0 39.9-30.8 62.5-78.8 62.5h-82V62.3h82.9c48 0 76.1 22.7 76.1 62.5v39.9c-.1 22.7-10 46.7-35.4 49.9zm-71.2-21.3h29.5c15 0 24.5-7.7 24.5-24.5v-36.7c0-16.8-9.5-24.5-24.5-24.5h-29.5v85.7zm31.3 44.4h-31.3v96.5h31.3c15 0 24.5-7.7 24.5-24.5v-47.6c0-16.7-9.5-24.4-24.5-24.4zM736.2 58.7h3.6c48 0 79.8 19 79.8 67.1v190.3c0 48-31.7 67.1-79.8 67.1h-3.6c-48 0-79.8-19-79.8-67.1V125.8c0-48.5 31.7-67.1 79.8-67.1zm1.8 278.2c17.2 0 29-6.3 29-29v-174c0-22.7-11.8-29-29-29s-29 6.3-29 29v174c0 22.7 11.7 29 29 29zM941 58.7h3.6c48 0 79.8 19 79.8 67.1v190.3c0 48-31.7 67.1-79.8 67.1H941c-48 0-79.8-19-79.8-67.1V125.8c0-48.5 31.7-67.1 79.8-67.1zm1.8 278.2c17.2 0 29-6.3 29-29v-174c0-22.7-11.8-29-29-29s-29 6.3-29 29v174c0 22.7 11.8 29 29 29zM1067.9 379.5V62.3h52.6l66.6 196.2V62.3h48v317.2h-49.8L1116 173.3v206.2h-48.1zM1463.9 298h-85.2l-17.7 81.6h-24.5l70.7-317.2h28.1l71.6 317.2h-25.4l-17.6-81.6zm-5-22.3l-37.6-174.9-37.6 174.9h75.2zM1549.5 379.5V62.3h24.5v317.2h-24.5z" class="st0"/>
  <path d="M74.8 1.5v63.6h63.6v71.6H74.8v63.6H3.3V1.5h71.5z"/>
  <path d="M74.8 244.1v63.6h63.6v71.6H3.3V244.1h71.5z"/>
  <path d="M182.2 379.3v-71.6h63.6v-63.6h71.6v135.2H182.2z"/>
  <path d="M317.4 65.1v135.2h-71.6v-63.6h-67.6V65.1h139.2z"/>
</svg>
