<svg viewBox="0 0 1576.1 384.9">
  <path fill="#ffffff" d="M581.2 215.9c27.4 4.5 36.9 25.6 36.9 49.9v51.7c0 39.6-30.6 62-78.2 62h-81.4V64.7h82.3c47.6 0 75.5 22.5 75.5 62v39.6c-.1 22.6-9.9 46.4-35.1 49.6zm-70.7-21.2h29.3c14.9 0 24.3-7.6 24.3-24.3V134c0-16.7-9.4-24.3-24.3-24.3h-29.3v85zm31.1 44.1h-31.1v95.8h31.1c14.9 0 24.3-7.6 24.3-24.3V263c0-16.6-9.4-24.2-24.3-24.2zM734.1 61.1h3.6c47.6 0 79.2 18.9 79.2 66.6v188.9c0 47.6-31.5 66.6-79.2 66.6h-3.6c-47.6 0-79.2-18.9-79.2-66.6V127.7c0-48.1 31.5-66.6 79.2-66.6zm1.8 276.1c17.1 0 28.8-6.3 28.8-28.8V135.8c0-22.5-11.7-28.8-28.8-28.8s-28.8 6.3-28.8 28.8v172.7c0 22.5 11.6 28.7 28.8 28.7zM937.4 61.1h3.6c47.6 0 79.2 18.9 79.2 66.6v188.9c0 47.6-31.5 66.6-79.2 66.6h-3.6c-47.6 0-79.2-18.9-79.2-66.6V127.7c0-48.1 31.4-66.6 79.2-66.6zm1.8 276.1c17.1 0 28.8-6.3 28.8-28.8V135.8c0-22.5-11.7-28.8-28.8-28.8s-28.8 6.3-28.8 28.8v172.7c0 22.5 11.7 28.7 28.8 28.7zM1063.3 379.5V64.7h52.2l66.1 194.7V64.7h47.6v314.8h-49.4L1111 174.8v204.7h-47.7zM1456.4 298.6h-84.6l-17.6 81h-24.3l70.2-314.8h27.9l71.1 314.8h-25.2l-17.5-81zm-5-22.1l-37.3-173.6-37.3 173.6h74.6zM1541.3 379.5V64.7h24.3v314.8h-24.3z" class="st0"/>
  <path fill="#254cff" d="M74.8 1.5v63.6h63.6v71.6H74.8v63.6H3.3V1.5h71.5z"/>
  <path fill="#f20000" d="M74.8 244.1v63.6h63.6v71.6H3.3V244.1h71.5z"/>
  <path fill="#ef8d00" d="M182.2 379.3v-71.6h63.6v-63.6h71.6v135.2H182.2z"/>
  <path fill="#00d6f2" d="M317.4 65.1v135.2h-71.6v-63.6h-67.6V65.1h139.2z"/>
</svg>
