<svg xmlns="http://www.w3.org/2000/svg" viewBox="0 0 59 30">
  <path d="M10.9.1l12.3 4.1-.7 1.7z" fill="#ffffff"/>
  <path d="M10.6 1l13 6.4-6.8 12.8-2.6-1.5L21.7 9z" fill="#ffffff"/>
  <path d="M9 1l11.4 8.4-9.3 11.3-2-1.6 9.5-8.7z" fill="#ffffff"/>
  <path d="M13.7 9.2L1.1 12.1l.5 1.7z" fill="#ffffff"/>
  <path d="M13.7 10.2L.1 15.3l5.5 13.4 2.8-1.2L1.9 17z" fill="#ffffff"/>
  <path d="M15.2 10.2l-12 7.4 8.1 12 2.1-1.3-8.5-9.5z" fill="#ffffff"/>
  <path d="M39.3 20.2V18h-6.1l6.1-7.1V9h-9.1v2.2h6L30 18.3v1.9z" fill="#ffffff"/>
  <path d="M48.5 20.3L53.1 9h-2.7l-2.9 7.9L44.6 9h-2.8l4.6 11.3z" fill="#ffffff"/>
  <path d="M58.4 20.2V9h-2.5v11.2z" fill="#ffffff"/>
</svg>
