<svg viewBox="0 0 20 20">
  <path fill="currentColor" d="M17 13c1.7 0 3-1.3 3-3s-1.3-3-3-3a3 3 0 00-2.8 2h-7l7.7-3.8c.6.5 1.3.8 2.1.8 1.7 0 3-1.3 3-3s-1.3-3-3-3-3 1.3-3 3v.4L5 7.9C4.5 7.3 3.8 7 3 7c-1.7 0-3 1.3-3 3s1.3 3 3 3c.8 0 1.5-.3 2-.8l9 4.5v.3c0 1.7 1.3 3 3 3s3-1.3 3-3-1.3-3-3-3c-.8 0-1.6.3-2.1.9L7.1 11h7.1a3 3 0 002.8 2zm0-4c.6 0 1 .4 1 1s-.4 1-1 1-1-.4-1-1 .4-1 1-1zm0-7c.6 0 1 .4 1 1s-.4 1-1 1-1-.4-1-1 .4-1 1-1zM3 11c-.6 0-1-.4-1-1s.4-1 1-1 1 .4 1 1-.4 1-1 1zm14 5c.6 0 1 .4 1 1s-.4 1-1 1-1-.4-1-1 .4-1 1-1z"/>
</svg>
