<svg xmlns="http://www.w3.org/2000/svg" viewBox="0 0 20 20">
  <path fill="currentColor" d="M19.9 8.7c-.2-.6-.6-1.2-1.1-1.5-.8-.4-1.7-.4-2.4 0l-4.5-4.1c.1-.4.1-.8 0-1.1-.2-.6-.6-1.2-1.1-1.5-1.3-.7-2.8-.3-3.5.9-.2.4-.3.9-.3 1.3L4.3 4.1c-.1-.2-.3-.3-.5-.5-1.2-.6-2.7-.2-3.4.9-.7 1.2-.3 2.7.9 3.4.4.2.8.3 1.2.3h.2L4 9.9l-.6 1c-1.1-.4-2.3.1-2.9 1.1-.7 1.2-.3 2.7.9 3.4a2.45 2.45 0 002.8-.3l2.9 1.4c-.3 1 .2 2.2 1.1 2.7.4.2.8.3 1.2.3.9 0 1.7-.4 2.1-1.2.3-.6.4-1.2.2-1.9 0-.1-.1-.2-.1-.3l5-4.5c.3.1.6.2.8.2.9 0 1.7-.4 2.1-1.2.5-.6.5-1.3.4-1.9zm-8.7-4.5L15.4 8l-.1.1c-.1.3-.2.5-.3.8h-1.4v-.2c-.2-.6-.6-1.2-1.1-1.5-1.2-.7-2.7-.3-3.4.9 0 .1-.1.3-.1.4l-2-1 1.6-2.6c.3.1.6.1.8.1.7 0 1.4-.3 1.8-.8zm.9 5.6c-.3.5-.9.6-1.3.4-.5-.3-.6-.9-.4-1.3.2-.3.5-.5.8-.5.2 0 .3 0 .5.1s.4.3.4.6c.2.2.1.5 0 .7zm-3.5-.1l-2.4 1.1-.7-.9.8-1.4 2.3 1.2zM4.9 5.2l2.4-1.3.3.3-1.7 2.7-1-.5c.1-.4.1-.8 0-1.2zm3.7-3.1c.2-.3.5-.5.8-.5.2 0 .3 0 .5.1s.4.3.4.6c.1.2 0 .5-.1.7-.2.5-.8.7-1.2.4-.5-.3-.7-.8-.4-1.3zM2.1 6.6c-.5-.3-.6-.8-.4-1.3.2-.3.5-.5.9-.5.2 0 .3 0 .5.1s.4.3.4.6c.1.2 0 .5-.1.7-.3.5-.9.7-1.3.4zM4 7.8l.3-.3.9.5-.5.8-.7-1zm1 3.6l-.6.3.3-.6.3.3zm2.6 4l-2.8-1.3c.2-.4.3-.9.2-1.3l.8-.3 2 2.9h-.2zm-5.5-1.3c-.5-.3-.6-.9-.4-1.3.2-.3.5-.5.8-.5.2 0 .3 0 .5.1s.4.3.4.6c.1.2 0 .5-.1.7-.2.5-.8.7-1.2.4zm8.2 3.5c-.3.5-.9.6-1.3.4-.5-.3-.6-.9-.4-1.3.2-.3.5-.5.8-.5.2 0 .3 0 .5.1s.4.3.4.6c.1.2.1.5 0 .7zm-1.5-2.9l-2-2.9 2.4-1.1c.2.3.5.5.8.7.4.2.8.3 1.2.3.8 0 1.7-.4 2.1-1.2.1-.1.1-.3.2-.4h1.6c.1.3.2.5.4.7l-4.7 4.3c-.1-.1-.2-.1-.2-.2-.5-.2-1.2-.3-1.8-.2zm9.5-4.9c-.3.5-.8.6-1.3.4-.5-.3-.6-.9-.4-1.3.2-.3.5-.5.8-.5.2 0 .3 0 .5.1s.4.3.4.6c.2.2.2.5 0 .7z"/>
</svg>
