<svg viewBox="0 0 200 250">
  <path fill="#4A4A4A" d="M134.59 128.97l-3.87-2.278-1.249-.734-.568 1.334-.457 1.075c-1.816 4.274-5.427 6.93-9.422 6.93-3.997 0-7.607-2.656-9.422-6.93l-.458-1.074-.567-1.336-1.249.735-3.87 2.278-.967.57.439 1.032.457 1.074c2.96 6.968 8.951 11.298 15.637 11.298 6.685 0 12.676-4.33 15.636-11.299l.457-1.073.44-1.033-.966-.569h-.001zm-43.084-2.278l-1.248-.734-.568 1.334-.457 1.075c-1.816 4.274-5.427 6.93-9.423 6.93-3.996 0-7.606-2.656-9.422-6.93l-.457-1.074-.567-1.336-1.249.735-3.871 2.278-.966.57.439 1.032.456 1.074c2.96 6.968 8.952 11.298 15.637 11.298 6.685 0 12.677-4.33 15.637-11.299l.457-1.073.44-1.033-.966-.569-3.872-2.278zm8.548 38.468c-3.35 0-6.063 2.722-6.063 6.078 0 3.357 2.714 6.078 6.063 6.078 3.348 0 6.062-2.72 6.062-6.078 0-3.356-2.714-6.078-6.062-6.078"/>
  <path fill="#B3B3B3" d="M195.522 93.207v4.295h-17.137v-3.364l9.783-11.597h-9.533v-4.296h16.567v3.364l-9.783 11.597 10.103.001zM186.95 54.835l.004 7.269-29.003.012-.003-5.694 16.549-19.633-16.133.006-.004-7.269 28.04-.01.003 5.692-16.55 19.635 17.097-.008z"/>
  <path fill="#4A4A4A" d="M154.128 208.749H44.707v-53.933h-.001V81.827h21.03v9.647a2.55 2.55 0 002.547 2.553h62.267a2.55 2.55 0 002.547-2.553v-9.647h21.029v84.637h.001v42.285h.001zm9.143-136.09c-1.705-1.71-3.78-2.567-6.219-2.567h-23.955v-9.28a2.55 2.55 0 00-2.547-2.554h-8.843v-8.773a2.55 2.55 0 00-2.547-2.553H80.273a2.55 2.55 0 00-2.547 2.553v8.773h-9.443a2.55 2.55 0 00-2.547 2.554v9.28H41.779c-2.436 0-4.51.858-6.22 2.568C33.856 74.372 33 76.45 33 78.894v132.789c0 2.443.854 4.522 2.562 6.234 1.705 1.71 3.78 2.567 6.219 2.567h115.274c2.437 0 4.51-.857 6.22-2.567 1.704-1.712 2.56-3.79 2.56-6.234V78.893c0-2.443-.854-4.521-2.563-6.233l-.001-.001z"/>
</svg>
