<svg viewBox="0 0 308.7 286.8">
  <path fill="#4b4b4b" d="M132.6 147.3l-1.2-.7-.6 1.3-.4 1.1c-1.8 4.3-5.3 6.9-9.3 6.9-3.9 0-7.5-2.7-9.3-6.9l-.4-1.1-.6-1.3-1.2.7-3.8 2.3-.9.6.4 1 .4 1.1c2.9 7 8.8 11.3 15.4 11.3s12.5-4.3 15.4-11.3l.4-1.1.4-1-.9-.6-3.8-2.3zm42.3 2.2l-3.8-2.3-1.2-.7-.6 1.3-.4 1.1c-1.8 4.3-5.3 6.9-9.3 6.9-3.9 0-7.5-2.7-9.3-6.9l-.4-1.1-.6-1.3-1.2.7-3.8 2.3-.9.6.4 1 .4 1.1c2.9 7 8.8 11.3 15.4 11.3s12.5-4.3 15.4-11.3l.4-1.1.4-1-.9-.6zM141.3 185.5c-3 0-5.5 2.5-5.5 5.5s2.5 5.5 5.5 5.5 5.5-2.5 5.5-5.5-2.4-5.5-5.5-5.5"/>
  <path fill="#b4b3b5" d="M251.8 115.3v4.2h-17v-3.3l9.7-11.4h-9.4v-4.3h16.4v3.3l-9.7 11.5z"/>
  <path fill="#b3b4b4" d="M242.8 78.2v7.3h-28v-5.7l16-19.9h-15.6v-7.4h27.1v5.8l-16 19.9z"/>
  <path fill="#4b4b4b" d="M216.5 104.3c-4.7-4.7-11-7.4-17.5-7.4h-59.2l-17.4-17.5-.9-.9H84.7c-6.6 0-12.8 2.6-17.5 7.4-4.7 4.7-7.3 11-7.3 17.6v108c0 6.6 2.6 12.9 7.3 17.6 4.7 4.7 11 7.4 17.5 7.4H199c6.6 0 12.8-2.6 17.5-7.4 4.7-4.7 7.3-11 7.3-17.6v-89.6c0-6.6-2.6-12.9-7.3-17.6zm-5.8 107.2c0 6.5-5.3 11.8-11.7 11.8H84.7c-6.5 0-11.7-5.3-11.7-11.8v-108c0-6.5 5.3-11.8 11.7-11.8h31.4l17.4 17.5.9.9H199c6.5 0 11.7 5.3 11.7 11.8v89.6z"/>
</svg>
