<svg viewBox="0 0 216 216">
  <path fill="gray" d="M105.2 96.4h5.8v45.5h-5.8z"/>
  <path fill="#4a4a4a" d="M94.8 170.1c-1 0-1.8.8-1.8 1.8 0 8.5-5 16.3-12.8 19.7-.9.4-1.3 1.4-.9 2.3.3.7.9 1.1 1.6 1.1.2 0 .5 0 .7-.2a25 25 0 0014.9-23c.1-.9-.7-1.7-1.7-1.7M123.8 166.8c1.2 0 2.2-.8 2.2-1.8v-6.1c0-1-1-1.8-2.2-1.8s-2.2.8-2.2 1.8v6.1c0 1 1 1.8 2.2 1.8M140.9 192.6a19.2 19.2 0 01-14.5-18.5c0-1-.8-1.8-1.8-1.8s-1.8.8-1.8 1.8a23 23 0 0017.3 22l.5.1c.8 0 1.6-.5 1.8-1.3.1-1.1-.5-2.1-1.5-2.3M108.6 174.4c-1.2 0-2.2.8-2.2 1.8v6.1c0 1 1 1.8 2.2 1.8s2.2-.8 2.2-1.8v-6.1c-.1-1-1-1.8-2.2-1.8"/>
  <path fill="gray" d="M108.1 52.7c-7.8 0-14.1 6.4-14.1 14.2a14.1 14.1 0 1028.2 0c0-7.9-6.3-14.2-14.1-14.2zm0 24.7a10.5 10.5 0 110-21 10.5 10.5 0 010 21z"/>
  <path fill="#4a4a4a" d="M92.2 157.5c0 1 1 1.8 2.2 1.8 1.2 0 2.2-.8 2.2-1.8v-8.3h-4.4v8.3zm-11.1 13v.8a17 17 0 01-10.2 15.6l-.2.1a12.7 12.7 0 00-20.2-2.1 17.6 17.6 0 00-25.2 2.5A16.3 16.3 0 004.6 209c.3.7 1 1.1 1.7 1.1l.7-.1c.9-.4 1.3-1.5 1-2.4a12.7 12.7 0 1124.1-7.5c.2 1 1.2 1.6 2.1 1.4 1-.2 1.6-1.2 1.4-2.1-.9-4.3-3.4-7.9-6.9-10.3a14 14 0 0119.9-1.2c-.8 1.7-1.3 3.6-1.3 5.6 0 1.3.2 2.6.6 3.8.2.8 1 1.3 1.7 1.3l.5-.1c1-.3 1.5-1.3 1.2-2.3a9.1 9.1 0 018.7-11.8 9.1 9.1 0 018.7 11.8c-.3 1 .2 2 1.2 2.3s2-.2 2.3-1.2a12 12 0 00.2-7c-.3.1-.2 0-.1 0a20.8 20.8 0 0012.4-19V149.2h-3.6v21.3zm116.6 15.9c-2 0-4 .4-5.8 1.1a18 18 0 00-25.4-2.5 12.8 12.8 0 00-20.5 2.3 17.1 17.1 0 01-10.9-15.9v-22.2h-3.6v22.2c0 8.7 5.4 16.2 13.1 19.2a12.6 12.6 0 00.2 6.8c.3 1 1.3 1.5 2.3 1.2s1.5-1.3 1.2-2.3a9.2 9.2 0 018.8-11.8 9.2 9.2 0 018.8 11.8c-.3 1 .2 2 1.2 2.3l.5.1c.8 0 1.5-.5 1.7-1.3.4-1.2.6-2.5.6-3.8 0-2-.5-3.9-1.3-5.6a14 14 0 0120 1.2c-3.5 2.3-6.1 6-7 10.3-.2 1 .4 1.9 1.4 2.1s1.9-.4 2.2-1.4a12.8 12.8 0 1124.3 7.5c-.4.9 0 2 1 2.4l.7.1c.7 0 1.4-.4 1.7-1.1.9-2 1.3-4.1 1.3-6.4-.1-9-7.5-16.3-16.5-16.3zm-91.3-20.2c0 .9 1 1.7 2.2 1.7 1.2 0 2.2-.8 2.2-1.7v-17h-4.4v17z"/>
  <path fill="gray" d="M135.1 147v-3.5h48.2c1.3 0 2.3-1 2.3-2.3v-5a43 43 0 00-15.6-33l-.6-.5-.6-.5a64.3 64.3 0 01-23.5-30.9A134.3 134.3 0 00129 32.9l-.1-.2-.1-.2a138.1 138.1 0 00-19-24.1c-.8-.8-2.5-.8-3.3 0A138 138 0 0073.4 63l-.1.1-.2.6-.2.4-1.6 5.7a65.2 65.2 0 01-23.9 32.4l-1.2.9a42.8 42.8 0 00-15.6 33.1v5c0 1.3 1 2.3 2.3 2.3H81v5.7h54.1V147zm13.4-59.4a71.6 71.6 0 0018.6 19.2 38.5 38.5 0 0113.9 29.6v2.7h-35.6a138.7 138.7 0 003.1-51.5zm-40.4-74.2a136 136 0 0115.7 19.9 31.8 31.8 0 01-31.3 0 129 129 0 0115.6-19.9zM35.2 139v-2.6c0-11.4 5.1-22.2 14-29.6l.4-.3.5-.4c7-5 13-11.3 17.8-18.6a133.8 133.8 0 003 51.6H35.2zm40.4 0a136.4 136.4 0 01.1-67.8A136 136 0 0190 37.3a36.2 36.2 0 0036.4-.1 137 137 0 0112.2 27v.3a135 135 0 012.1 74.5H75.6z"/>
  <circle  fill="gray" cx="108.1" cy="66.9" r="7"/>
</svg>
