<svg viewBox="0 0 20 20">
  <path fill="currentColor" d="M15.968 2c-.295 0-.479.308-.59.534-.067.13-.124.231-.17.302a.243.243 0 01-.115.085 1.091 1.091 0 01-.316.066c-.154.013-.355.02-.606.02l-8.526-.001a5.718 5.718 0 01-.227-.009.566.566 0 01-.187-.042.272.272 0 01-.107-.09 4.584 4.584 0 01-.194-.289c-.13-.254-.316-.547-.586-.565-.345-.028-.504.493-.572.748L3.1 5.594a4.462 4.462 0 00-.09.567c-.02.209-.006.356.042.462l.094.148.113.031c.162.047.31-.054.357-.088.13-.088.286-.268.496-.565.27-.385.51-.7.711-.936.2-.233.381-.416.541-.545.143-.115.288-.19.43-.223.156-.037.346-.051.582-.036H8.53v10.135c0 .279-.049.487-.145.616-.05.068-.204.193-.668.271l-1.786.331v.963l.29-.046c.111-.018.401-.041 1.154-.05a281.023 281.023 0 014.575 0c.703.007 1.248.024 1.62.052l.267.02v-.933l-1.883-.398c-.326-.075-.422-.168-.447-.204-.029-.041-.095-.181-.095-.602V4.409h2.154c.352 0 .64.029.856.086.197.052.355.132.468.236a.992.992 0 01.26.404c.07.197.14.43.207.69.064.31.137.532.225.677.105.173.217.277.343.318a.368.368 0 00.445-.176.768.768 0 00.087-.384l.044-3.591c0-.621-.407-.669-.532-.669"/>
</svg>
