<svg viewBox="0 0 20 20">
  <path fill="currentColor" d="M16.2 8.5c.9-.8 1.4-2 1.4-3.2 0-2.5-2-4.5-4.5-4.5-1.2 0-2.3.4-3.1 1.3-.4.2-.6.5-.8.9l-.3.4.5.2c.3.1.6.3.9.5l.4.3.2-.4c.2-.3.4-.5.6-.7.4-.3 1-.5 1.5-.5 1.4 0 2.5 1.1 2.5 2.5 0 1.1-.7 2.1-1.8 2.4-.3.1-.6.1-.9.1h-.5v.5c0 .3-.1.7-.2 1l-.2.7.8-.1h.9c2.5.3 4.3 2.4 4.3 4.9v.5h2v-.5c.1-2.7-1.4-5.1-3.7-6.3z"/>
  <path fill="currentColor" d="M10.5 11.3c.9-.9 1.4-2 1.4-3.3 0-2.5-2.1-4.6-4.7-4.6S2.5 5.5 2.5 8c0 1.3.5 2.4 1.4 3.3-2.4 1.2-4 3.6-4 6.3v.4H2v-.5c0-2.7 2.3-5 5.1-5s5.1 2.2 5.1 5v.5h2.1v-.5c.1-2.6-1.4-5-3.8-6.2zm-3.3-.8c-1.4 0-2.6-1.1-2.6-2.5s1.2-2.5 2.6-2.5c1.4 0 2.6 1.1 2.6 2.5s-1.2 2.5-2.6 2.5z"/>
</svg>
