<svg viewBox="0 0 20 20">
  <path fill="currentColor" d="M9.982 1a4.144 4.144 0 00-4.14 4.139c0 1.287.592 2.438 1.516 3.198l-1.786 3.094-.665 1.151-1.008 1.744c-.46.104-.81.496-.81.986a1.03 1.03 0 002.059 0c0-.097-.031-.184-.056-.273l1.015-1.756.666-1.152 1.792-3.104.666-1.154a2.826 2.826 0 01-1.208-.687 2.826 2.826 0 01-.877-2.047 2.84 2.84 0 012.836-2.836 2.839 2.839 0 012.713 3.662l1.229.432a4.12 4.12 0 00.197-1.258A4.144 4.144 0 009.98 1"/>
  <path fill="currentColor" d="M.554 17.361a4.136 4.136 0 007.666-1.396h6.917c.319.346.834.455 1.257.21a1.029 1.029 0 10-1.03-1.783c-.082.048-.143.117-.207.184H6.882a2.844 2.844 0 01-1.326 3.172 2.841 2.841 0 01-3.874-1.038 2.838 2.838 0 011.815-4.18l-.24-1.28a4.137 4.137 0 00-1.188.457 4.144 4.144 0 00-1.515 5.654"/>
  <path fill="currentColor" d="M19.42 17.338a4.143 4.143 0 00-1.524-5.651 4.134 4.134 0 00-3.528-.282l-1.79-3.09-.668-1.15L10.9 5.42a1.015 1.015 0 00-.449-1.193 1.031 1.031 0 00-1.406.379 1.03 1.03 0 00.38 1.405c.083.048.173.066.263.088l1.016 1.756.668 1.15 1.796 3.102.67 1.153a2.83 2.83 0 011.196-.705 2.824 2.824 0 012.212.26 2.839 2.839 0 011.045 3.873 2.841 2.841 0 01-3.873 1.045 2.838 2.838 0 01-.654-.52l-.988.85a4.142 4.142 0 006.644-.727"/>
</svg>