<svg xmlns="http://www.w3.org/2000/svg" id="Layer_1" viewBox="0 0 103.3 30"><style>.st0{fill:#555759}.st1{fill:#b8d652}.st2{fill:#fff}</style><path d="M11.3 0l11.9 4.7-.8 1.7zM11 .9L23.5 8l-7.4 12.7-2.4-1.6 7.8-9.6z" class="st0"/><path d="M9.4.8l10.8 9.1-9.7 11-1.8-1.7 9.6-8.3z" class="st1"/><path d="M13.7 9.4L1.1 11.8l.4 1.7zM13.6 10.4L0 14.9l4.7 13.9 2.8-1.1-5.8-11z" class="st0"/><path d="M15.1 10.5L2.9 17.4 10.3 30l2.1-1.3-7.9-10z" class="st1"/><g><path d="M99.3 10.7h-2l-3.9 9.9h2l1-2.4h3.8l1 2.4h2l-3.9-9.9zm.3 5.8H97l1.3-3.9 1.3 3.9zM77.3 15.3c.4-.5.6-1 .6-1.7 0-1-.5-1.7-1.3-2.3-.6-.3-1.5-.5-2.6-.5h-4.3v9.9h1.9v-4.1h2.6l2 4.1h2L76 16.2c.5-.2.9-.5 1.3-.9zM76 13.6c0 .5-.1.8-.5 1-.2.1-.5.3-.7.4-.3.1-.6.1-1 .1h-2.3v-2.9H74c.6 0 1 .1 1.4.2.4.4.6.7.6 1.2zM65 15.3c.4-.5.6-1 .6-1.7 0-1-.5-1.7-1.3-2.3-.6-.4-1.5-.6-2.6-.6h-4.3v9.9h1.9v-4.1H62l2 4.1h2l-2.2-4.4c.5-.2.9-.5 1.2-.9zm-1.3-1.7c0 .5-.1.8-.5 1-.2.1-.5.3-.7.4-.3.1-.6.1-1 .1h-2.3v-2.9h2.5c.6 0 1 .1 1.4.2.5.4.6.7.6 1.2zM40.7 11.9v-1.2h-7.8v1.5h5.4l-5.6 7v1.4h8.1v-1.5H35zM50.9 10.9c-4-1.4-7.9 2.5-6.5 6.5.5 1.5 1.7 2.6 3.1 3.1 4 1.4 7.9-2.5 6.5-6.5-.5-1.4-1.7-2.6-3.1-3.1zm1.6 4c.6 2.4-1.6 4.7-4.1 4.1-1.2-.3-2.1-1.2-2.4-2.4-.6-2.4 1.6-4.7 4.1-4.1 1.1.3 2 1.2 2.4 2.4zM87.9 10.9c-4-1.4-7.9 2.5-6.5 6.5.5 1.5 1.7 2.6 3.1 3.1 4 1.4 7.9-2.5 6.5-6.5-.5-1.4-1.7-2.6-3.1-3.1zm1.5 4c.6 2.4-1.6 4.7-4.1 4.1-1.2-.3-2.1-1.2-2.4-2.4-.6-2.4 1.6-4.7 4.1-4.1 1.1.3 2.1 1.2 2.4 2.4z" class="st2"/></g></svg>