<svg width="20" height="20" xmlns="http://www.w3.org/2000/svg">
  <path d="M9.838 18.19c-.375 0-.754-.026-1.128-.08-3.59-.515-6.303-3.352-6.687-6.808l-.707.696A.797.797 0 0 1 .232 12a.767.767 0 0 1-.004-1.094L2.44 8.769c.02-.011.052-.03.085-.042l.306-.061.11.014v-.004a.75.75 0 0 1 .117.027l.136.058a.74.74 0 0 1 .126.085l2.1 2.06a.754.754 0 0 1 .23.545.754.754 0 0 1-.232.547.795.795 0 0 1-1.085 0l-.756-.744c.37 2.69 2.54 4.932 5.356 5.336a6.402 6.402 0 0 0 5.883-2.3.78.78 0 0 1 1.08-.124.767.767 0 0 1 .126 1.084c-1.48 1.84-3.793 2.94-6.183 2.94m7.353-6.666l-.297-.052-.1-.05a.63.63 0 0 1-.114-.079l-2.1-2.059a.76.76 0 0 1 .001-1.092.776.776 0 0 1 1.087.002l.754.742c-.368-2.689-2.54-4.932-5.355-5.336-2.23-.32-4.483.561-5.881 2.3a.781.781 0 0 1-1.081.125.759.759 0 0 1-.29-.515.762.762 0 0 1 .163-.569c1.74-2.163 4.542-3.258 7.312-2.86 3.59.515 6.3 3.351 6.686 6.808l.707-.696a.778.778 0 0 1 1.086 0l.002.001a.758.758 0 0 1-.001 1.09l-2.161 2.108a1.028 1.028 0 0 1-.124.068l-.156.048a.848.848 0 0 1-.138.016" fill="currentColor"/>
</svg>