<svg viewBox="0 0 20 20" xmlns="http://www.w3.org/2000/svg">
  <path d="M9.838 18.19c-.375 0-.754-.026-1.128-.08-3.59-.516-6.303-3.352-6.687-6.808l-.707.695A.796.796 0 0 1 .231 12a.767.767 0 0 1-.004-1.094L2.44 8.768a.782.782 0 0 1 .085-.042l.306-.06.109.013v-.005a.79.79 0 0 1 .118.028l.136.058a.794.794 0 0 1 .126.084l2.099 2.06c.148.144.23.34.23.545a.755.755 0 0 1-.231.547.794.794 0 0 1-1.085 0l-.756-.744c.37 2.69 2.54 4.932 5.355 5.336a6.4 6.4 0 0 0 5.883-2.299.78.78 0 0 1 1.08-.125c.164.128.268.31.29.517a.76.76 0 0 1-.163.567c-1.481 1.841-3.794 2.941-6.183 2.941M17.191 11.524l-.296-.052-.1-.05a.668.668 0 0 1-.114-.079l-2.1-2.06a.761.761 0 0 1 .001-1.091.775.775 0 0 1 1.087.002l.755.742c-.369-2.69-2.541-4.932-5.356-5.336-2.23-.32-4.483.561-5.881 2.3a.781.781 0 0 1-1.081.125.761.761 0 0 1-.127-1.084c1.741-2.163 4.542-3.258 7.311-2.86 3.591.515 6.302 3.35 6.687 6.808l.707-.696a.778.778 0 0 1 1.086 0l.002.001a.762.762 0 0 1 0 1.09l-2.162 2.108a.963.963 0 0 1-.124.068l-.156.048a.78.78 0 0 1-.139.016" fill="currentColor"/>
</svg>