<?xml version="1.0" encoding="UTF-8"?>
<svg viewBox="0 0 20 20" version="1.1" xmlns="http://www.w3.org/2000/svg" xmlns:xlink="http://www.w3.org/1999/xlink">
    <!-- Generator: Sketch 59.1 (86144) - https://sketch.com -->
    <title>Icon/Generating</title>
    <desc>Created with Sketch.</desc>
    <defs>
        <polygon id="path-1" points="0 0.951428571 16.1897951 0.951428571 16.1897951 10.4761905 0 10.4761905"></polygon>
        <polygon id="path-3" points="1.44392316e-05 0 16.19 0 16.19 9.52390476 1.44392316e-05 9.52390476"></polygon>
    </defs>
    <g id="Icon/Generating" stroke="none" stroke-width="1" fill="none" fill-rule="evenodd">
        <rect id="Rectangle" x="0" y="0" width="20" height="20"></rect>
        <g id="Group-7" transform="translate(0.000000, 2.000000)">
            <g id="Group-3" transform="translate(0.000000, 5.714095)">
                <mask id="mask-2" fill="white">
                    <use xlink:href="#path-1"></use>
                </mask>
                <g id="Clip-2"></g>
                <path d="M9.83790476,10.4761905 C9.46266667,10.4761905 9.08361905,10.4495238 8.71028571,10.3961905 C5.11885714,9.88 2.40742857,7.04380952 2.02266667,3.58761905 L1.316,4.28285714 C1.02647619,4.56761905 0.524571429,4.56952381 0.231238095,4.28571429 C0.0807619048,4.13619048 -0.00019047619,3.94285714 -0.00019047619,3.73619048 C-0.00019047619,3.53047619 0.0807619048,3.33714286 0.227428571,3.19238095 L2.43885714,1.05428571 C2.45885714,1.04285714 2.4912381,1.02571429 2.52361905,1.01238095 L2.83028571,0.951428571 L2.93885714,0.964761905 L2.93885714,0.960952381 C2.9807619,0.967619048 3.01790476,0.976190476 3.05695238,0.988571429 L3.19314286,1.04666667 C3.25695238,1.08285714 3.28742857,1.10571429 3.31885714,1.13142857 L5.41790476,3.19142857 C5.56647619,3.3352381 5.64838095,3.53047619 5.64838095,3.73619048 C5.64838095,3.94380952 5.56647619,4.13809524 5.41695238,4.28285714 C5.12933333,4.56857143 4.62171429,4.56857143 4.33219048,4.28285714 L3.576,3.53904762 C3.94552381,6.22952381 6.116,8.47142857 8.9312381,8.8752381 C11.1626667,9.19714286 13.4140952,8.3152381 14.8140952,6.57619048 C15.0798095,6.24857143 15.563619,6.19428571 15.8940952,6.45142857 C16.0579048,6.57904762 16.1617143,6.76190476 16.1845714,6.96761905 C16.208381,7.17238095 16.1502857,7.37333333 16.0207619,7.5352381 C14.5398095,9.37619048 12.2274286,10.4761905 9.83790476,10.4761905" id="Fill-1" fill="currentColor" mask="url(#mask-2)"></path>
            </g>
            <g id="Group-6" transform="translate(3.809524, -0.000190)">
                <mask id="mask-4" fill="white">
                    <use xlink:href="#path-3"></use>
                </mask>
                <g id="Clip-5"></g>
                <path d="M13.3814286,9.52390476 L13.0852381,9.47152381 L12.9852381,9.422 C12.9328571,9.39247619 12.902381,9.36961905 12.8709524,9.34295238 L10.7719048,7.28390476 C10.6242857,7.14009524 10.542381,6.9467619 10.542381,6.74009524 C10.542381,6.53247619 10.6242857,6.33819048 10.7728571,6.19247619 C11.0709524,5.8972381 11.5585714,5.89819048 11.8585714,6.19438095 L12.6138095,6.93628571 C12.2452381,4.2467619 10.0728571,2.00390476 7.25761905,1.60009524 C5.02714286,1.27914286 2.7747619,2.16104762 1.37666667,3.90009524 C1.11,4.22771429 0.627142857,4.282 0.295714286,4.02485714 C0.132857143,3.89819048 0.029047619,3.71438095 0.00523809524,3.50961905 C-0.0185714286,3.30390476 0.0395238095,3.102 0.169047619,2.94104762 C1.91,0.778190476 4.71095238,-0.317047619 7.48047619,0.0800952381 C11.0709524,0.596285714 13.782381,3.43152381 14.1671429,6.88866667 L14.8738095,6.19342857 C15.1709524,5.89914286 15.6604762,5.8972381 15.9604762,6.19247619 L15.962381,6.19438095 C16.1090476,6.33914286 16.19,6.53342857 16.19,6.74009524 C16.19,6.94580952 16.1080952,7.13914286 15.9614286,7.28390476 L13.7995238,9.39152381 C13.7490476,9.42390476 13.7128571,9.44295238 13.6757143,9.46009524 L13.5195238,9.50771429 C13.4661905,9.51914286 13.4242857,9.522 13.3814286,9.52390476" id="Fill-4" fill="currentColor" mask="url(#mask-4)"></path>
            </g>
        </g>
    </g>
</svg>