<?xml version="1.0" encoding="utf-8"?>
<!-- Generator: Adobe Illustrator 25.1.0, SVG Export Plug-In . SVG Version: 6.00 Build 0)  -->
<svg version="1.1" id="Layer_1" xmlns="http://www.w3.org/2000/svg" xmlns:xlink="http://www.w3.org/1999/xlink" x="0px" y="0px"
	 width="1576.1px" height="384.9px" viewBox="0 0 1576.1 384.9" style="enable-background:new 0 0 1576.1 384.9;"
	 xml:space="preserve">
<style type="text/css">
	.st0{fill-rule:evenodd;clip-rule:evenodd;fill:#254CFF;}
	.st1{fill-rule:evenodd;clip-rule:evenodd;fill:#F20000;}
	.st2{fill-rule:evenodd;clip-rule:evenodd;fill:#EF8D00;}
	.st3{fill-rule:evenodd;clip-rule:evenodd;fill:#00D6F2;}
</style>
<g>
	<path d="M582.1,214.6c27.6,4.5,37.2,25.8,37.2,50.3V317c0,39.9-30.8,62.5-78.8,62.5h-82V62.3h82.9c48,0,76.1,22.7,76.1,62.5v39.9
		C617.4,187.4,607.5,211.4,582.1,214.6z M510.9,193.3h29.5c15,0,24.5-7.7,24.5-24.5v-36.7c0-16.8-9.5-24.5-24.5-24.5h-29.5V193.3z
		 M542.2,237.7h-31.3v96.5h31.3c15,0,24.5-7.7,24.5-24.5v-47.6C566.7,245.4,557.2,237.7,542.2,237.7z"/>
	<path d="M736.2,58.7h3.6c48,0,79.8,19,79.8,67.1v190.3c0,48-31.7,67.1-79.8,67.1h-3.6c-48,0-79.8-19-79.8-67.1V125.8
		C656.4,77.3,688.1,58.7,736.2,58.7z M738,336.9c17.2,0,29-6.3,29-29v-174c0-22.7-11.8-29-29-29s-29,6.3-29,29v174
		C709,330.6,720.7,336.9,738,336.9z"/>
	<path d="M941,58.7h3.6c48,0,79.8,19,79.8,67.1v190.3c0,48-31.7,67.1-79.8,67.1H941c-48,0-79.8-19-79.8-67.1V125.8
		C861.2,77.3,892.9,58.7,941,58.7z M942.8,336.9c17.2,0,29-6.3,29-29v-174c0-22.7-11.8-29-29-29c-17.2,0-29,6.3-29,29v174
		C913.8,330.6,925.6,336.9,942.8,336.9z"/>
	<path d="M1067.9,379.5V62.3h52.6l66.6,196.2V62.3h48v317.2h-49.8l-69.3-206.2v206.2H1067.9z"/>
	<path d="M1463.9,298h-85.2l-17.7,81.6h-24.5l70.7-317.2h28.1l71.6,317.2h-25.4L1463.9,298z M1458.9,275.7l-37.6-174.9l-37.6,174.9
		H1458.9z"/>
	<path d="M1549.5,379.5V62.3h24.5v317.2H1549.5z"/>
</g>
<g id="Page-1">
	<g id="option-4-logo-up-color-copy-2" transform="translate(-1529.000000, -280.000000)">
		<g id="Group-Copy-6" transform="translate(1529.000000, 280.000000)">
			<path id="Combined-Shape" class="st0" d="M74.8,1.5l0,63.6l63.6,0v71.6l-63.6,0l0,63.6H3.3V1.5H74.8z"/>
			<path id="Combined-Shape_1_" class="st1" d="M74.8,244.1l0,63.6l63.6,0v71.6H3.3V244.1H74.8z"/>
			<path id="Combined-Shape_2_" class="st2" d="M182.2,379.3v-71.6l63.6,0l0-63.6h71.6v135.2H182.2z"/>
			<path id="Combined-Shape_3_" class="st3" d="M317.4,65.1v135.2h-71.6l0-63.6l-67.6,0V65.1H317.4z"/>
		</g>
	</g>
</g>
</svg>
