<svg xmlns="http://www.w3.org/2000/svg" id="Layer_1" viewBox="0 0 502.2 145.9"><style>.st0{fill:#555759}.st1{fill:#b8d652}</style><path d="M55 0l57.6 23.1-3.7 8.1zM53.5 4.4L114 38.9l-35.5 61.6-12.1-7.7 38.1-46.6z" class="st0"/><path d="M45.8 4l52.5 44L51 101.6l-8.8-8.1 46.9-40.7z" class="st1"/><path d="M66.4 45.5L5.5 57.2l1.8 8.4zM66 50.6l-66 22 23.1 67.5 13.6-5.5L8.1 81.4z" class="st0"/><path d="M73.3 51L13.9 84.7l36.3 61.2 10.3-6.2L22 90.9z" class="st1"/><g><path d="M483.1 52.2h-9.5l-19.1 48h9.9l4.8-11.7h18.3l4.8 11.7h9.9l-19.1-48zm1.4 27.9H472l6.2-19.1 6.3 19.1zM375.6 74.6c1.8-2.2 2.9-5.1 2.9-8.1 0-4.8-2.2-8.4-6.2-11-2.9-1.8-7.3-2.9-12.5-2.9H339v48h9.2V80.8H361l9.9 19.8h9.5L369.8 79c2.2-1.1 4.4-2.6 5.8-4.4zm-6.2-8.5c0 2.2-.7 3.7-2.2 5.1-1.1.7-2.2 1.5-3.3 1.8-1.5.4-2.9.4-4.8.4h-11.4V59.5h12.1c2.9 0 5.1.4 6.6 1.1 2.3 1.5 3 3.3 3 5.5zM316.2 74.6c1.8-2.2 2.9-5.1 2.9-8.1 0-4.8-2.2-8.4-6.2-11-2.9-1.8-7.3-2.9-12.5-2.9h-20.9v48h9.2V80.8h12.8l9.9 19.8h9.5L310.4 79c2.2-1.1 4.4-2.6 5.8-4.4zm-6.2-8.5c0 2.2-.7 3.7-2.2 5.1-1.1.7-2.2 1.5-3.3 1.8-1.5.4-2.9.4-4.8.4h-11.4V59.5h12.1c2.9 0 5.1.4 6.6 1.1 2.3 1.5 3 3.3 3 5.5zM197.8 57.7v-5.5H160v7.3h26.4l-27.5 34.1v6.6h39.6v-7.3h-28.6zM247.4 53.1c-19.4-6.8-38.2 12.1-31.5 31.5 2.5 7.1 8.1 12.8 15.2 15.2 19.4 6.7 38.2-12.1 31.5-31.5-2.5-7.1-8.2-12.8-15.2-15.2zm7.6 19.2c3.1 11.9-8 23-19.9 19.9-5.7-1.5-10.2-6-11.7-11.7-3.1-11.9 8-23 19.9-19.9 5.7 1.5 10.2 6.1 11.7 11.7zM427.4 53.1c-19.4-6.7-38.2 12.1-31.5 31.5 2.5 7.1 8.1 12.8 15.2 15.2 19.4 6.8 38.3-12.1 31.5-31.5-2.5-7.1-8.1-12.8-15.2-15.2zm7.3 19.2c3.1 11.9-8 23-19.9 19.9-5.7-1.5-10.2-6-11.7-11.7-3.1-11.9 8-23 19.9-19.9 5.7 1.5 10.2 6.1 11.7 11.7z"/></g></svg>