<svg width="20" height="20" xmlns="http://www.w3.org/2000/svg" xmlns:xlink="http://www.w3.org/1999/xlink"><defs><path d="M10 0c5.523 0 10 4.477 10 10s-4.477 10-10 10S0 15.523 0 10 4.477 0 10 0zm.987 6.75H7.194v1.848h1.507v5.118H7.194v1.84h5.178v-1.84h-1.385V6.75zM9.84 3.292c-.195 0-.373.03-.533.09-.16.059-.297.141-.411.247a1.087 1.087 0 00-.265.383c-.062.149-.093.31-.093.484s.031.335.093.484c.063.15.151.277.265.383.114.105.25.188.41.248.161.06 1.339.09 1.534.09.401 0-.28-.113-.044-.338.236-.225.354-.514.354-.867s-.118-.642-.354-.867c-.236-.225-.555-.337-.956-.337z" id="a"/></defs><g fill="none" fill-rule="evenodd"><path d="M0 0h20v20H0z"/><use fill="#808080" xlink:href="#a"/></g></svg>