<svg xmlns="http://www.w3.org/2000/svg" viewBox="0 0 20 20">
      <path d="M9.96 18.401c-4.654 0-8.441-3.786-8.441-8.44 0-4.655 3.787-8.442 8.441-8.442 4.655 0 8.441 3.787 8.441 8.441 0 4.655-3.786 8.441-8.44 8.441M9.96 0C4.467 0 0 4.468 0 9.96c0 5.492 4.468 9.96 9.96 9.96 5.492 0 9.96-4.468 9.96-9.96C19.92 4.468 15.452 0 9.96 0" fill="currentColor"/>
      <path d="M13.75 9.385h-2.583v-4.53a.927.927 0 00-.917-.935.927.927 0 00-.917.935v5.464c0 .516.412.935.917.935h3.5c.505 0 .917-.42.917-.935a.927.927 0 00-.917-.934" fill="currentColor"/>
</svg>